<svg viewBox="0 0 22 17" xmlns="http://www.w3.org/2000/svg">
<path fill-rule="evenodd" clip-rule="evenodd" d="M17.4301 5.13744C15.568 3.53286 12.8039 2.02837 9.08747 2.30713C8.58471 2.34484 8.14658 1.96784 8.10887 1.46509C8.07116 0.962337 8.44815 0.524204 8.95091 0.486494C13.2835 0.161518 16.5078 1.93253 18.6219 3.75438C19.6772 4.66375 20.4639 5.59146 20.9879 6.293C21.2505 6.64446 21.4486 6.94115 21.5829 7.15322C21.65 7.25931 21.7013 7.34441 21.7369 7.40481C21.7546 7.43502 21.7685 7.45907 21.7784 7.4765L21.7903 7.49763L21.794 7.50437L21.7959 7.50771C21.7961 7.50812 21.7963 7.5085 20.9961 7.94781L21.7959 7.50771C21.9443 7.77815 21.9466 8.10607 21.8012 8.37815C21.2171 9.47085 20.5205 10.4996 19.7228 11.4476C19.3982 11.8334 18.8223 11.883 18.4365 11.5584C18.0508 11.2338 18.0012 10.6579 18.3258 10.2721C18.93 9.55407 19.4695 8.78443 19.9383 7.97223C19.8328 7.81237 19.6951 7.61309 19.5252 7.38563C19.0613 6.76453 18.3629 5.94129 17.4301 5.13744ZM4.97799 1.79981C5.34144 1.52228 5.85415 1.55649 6.17751 1.87984L9.66118 5.36351C9.66325 5.36556 9.66532 5.36763 9.66738 5.36971L13.5325 9.23483C13.5346 9.23694 13.5368 9.23907 13.5389 9.2412L17.0224 12.7248C17.2087 12.911 17.3054 13.1686 17.2878 13.4314C17.2701 13.6942 17.1398 13.9366 16.9303 14.0963C15.2149 15.4039 13.1261 16.1283 10.9694 16.1635L10.9545 16.1637C7.39472 16.1637 4.65974 14.1312 2.87141 12.2237C1.96892 11.261 1.27991 10.3018 0.816415 9.58416C0.584102 9.22445 0.406952 8.92309 0.286616 8.70916C0.226414 8.60213 0.180329 8.5168 0.148573 8.45679C0.132692 8.42678 0.120385 8.40308 0.111679 8.38615L0.10132 8.36587L0.0981695 8.35963L0.0971025 8.35751C0.0969348 8.35718 0.0963747 8.35606 0.912873 7.94781L0.0963747 8.35606C-0.0362764 8.09076 -0.0317584 7.77754 0.10849 7.51618C1.30555 5.28535 2.96584 3.33631 4.97799 1.79981ZM1.9559 7.95069C2.05547 8.12267 2.18717 8.34135 2.35011 8.59364C2.77097 9.24529 3.39421 10.1119 4.20336 10.975C5.83686 12.7174 8.12011 14.3351 10.947 14.3379C12.3578 14.3136 13.733 13.9293 14.945 13.2293L12.8256 11.11C12.6807 11.2008 12.5293 11.2816 12.3723 11.3515C11.9244 11.5511 11.4409 11.6584 10.9506 11.667C10.4603 11.6757 9.97329 11.5855 9.51861 11.4019C9.06394 11.2182 8.65091 10.9449 8.30417 10.5981C7.95743 10.2514 7.68408 9.83835 7.50043 9.38368C7.31678 8.929 7.22659 8.44199 7.23524 7.95171C7.24389 7.46142 7.35121 6.97789 7.55078 6.52998C7.62072 6.37303 7.70148 6.22157 7.79232 6.07665L5.46546 3.74979C4.06257 4.93658 2.87496 6.35773 1.9559 7.95069ZM9.15419 7.43852C9.09561 7.61419 9.06398 7.79808 9.0607 7.98391C9.05638 8.22906 9.10147 8.47256 9.1933 8.6999C9.28512 8.92724 9.4218 9.13375 9.59517 9.30712C9.76854 9.48049 9.97505 9.61716 10.2024 9.70899C10.4297 9.80082 10.6732 9.84591 10.9184 9.84159C11.1042 9.83831 11.2881 9.80668 11.4638 9.74809L9.15419 7.43852Z" />
<path fill-rule="evenodd" clip-rule="evenodd" d="M3.3604 0.353659C3.61373 0.100335 4.02445 0.100335 4.27777 0.353659L18.5487 14.6246C18.802 14.8779 18.802 15.2886 18.5487 15.5419C18.2953 15.7952 17.8846 15.7952 17.6313 15.5419L3.3604 1.27103C3.10708 1.0177 3.10708 0.606983 3.3604 0.353659Z" />
</svg>
